<svg width="1024" height="1024" viewBox="0 0 1024 1024" xmlns="http://www.w3.org/2000/svg">
  <rect width="1024" height="1024" fill="#07090F" rx="220"/>
  <circle cx="512" cy="460" r="320" fill="rgba(0,194,168,0.04)"/>
  <circle cx="512" cy="460" r="260" fill="rgba(0,194,168,0.04)"/>
  <g transform="translate(512, 460)">
    <path d="M0,-240 L190,-152 L190,30 C190,146 104,246 0,280 C-104,246 -190,146 -190,30 L-190,-152 Z" fill="#0A1118" stroke="#00C2A8" stroke-width="5" stroke-linejoin="round"/>
    <path d="M0,-240 L190,-152 L190,30 C190,146 104,246 0,280 C-104,246 -190,146 -190,30 L-190,-152 Z" fill="none" stroke="rgba(0,194,168,0.15)" stroke-width="16" stroke-linejoin="round"/>
    <path d="M0,-178 L142,-112 L142,36 C142,118 76,196 0,224 C-76,196 -142,118 -142,36 L-142,-112 Z" fill="rgba(0,194,168,0.06)" stroke="rgba(0,194,168,0.2)" stroke-width="2" stroke-linejoin="round"/>
    <polygon points="-36,-106 -56,10 -16,10 -44,118 56,-36 8,-36 40,-106" fill="#00C2A8" stroke="#07090F" stroke-width="3" stroke-linejoin="round"/>
  </g>
</svg>
